<svg width="26" height="26" fill="none" xmlns="http://www.w3.org/2000/svg"><path d="M13.003 0h-.006C5.829 0 0 5.83 0 13a12.9 12.9 0 002.475 7.62l-1.62 4.83 4.997-1.598A12.888 12.888 0 0013.003 26C20.171 26 26 20.168 26 13S20.171 0 13.003 0z" fill="#4CAF50"/><path d="M20.568 18.358c-.314.886-1.559 1.62-2.551 1.835-.68.144-1.567.26-4.554-.979-3.82-1.582-6.28-5.464-6.472-5.716-.184-.252-1.544-2.056-1.544-3.921 0-1.866.948-2.774 1.33-3.164.313-.32.832-.467 1.329-.467.16 0 .305.008.435.015.382.016.574.039.826.642.313.755 1.077 2.62 1.168 2.813.093.191.185.451.055.703-.121.26-.229.376-.42.597-.192.22-.374.39-.566.627-.175.206-.374.427-.153.81.221.373.985 1.62 2.11 2.62 1.45 1.292 2.627 1.705 3.048 1.88.314.13.687.1.916-.144.291-.314.65-.834 1.016-1.346.26-.367.588-.412.933-.283.35.122 2.208 1.04 2.59 1.23.382.192.634.283.727.444.09.161.09.917-.223 1.804z" fill="#FAFAFA"/></svg>