<svg width="17" height="17" fill="none" xmlns="http://www.w3.org/2000/svg"><g clip-path="url(#clip0_942:23949)" fill="#0B2239"><path d="M16.984 4.998c-.04-.903-.186-1.524-.395-2.062a4.148 4.148 0 00-.983-1.508A4.184 4.184 0 0014.1.448C13.56.24 12.942.093 12.04.053 11.129.01 10.84 0 8.532 0S5.935.01 5.028.05c-.903.04-1.524.186-2.062.395a4.148 4.148 0 00-1.508.983c-.431.425-.767.94-.98 1.504-.209.542-.355 1.16-.395 2.063C.04 5.905.03 6.194.03 8.502s.01 2.597.05 3.503c.04.903.186 1.524.395 2.063a4.21 4.21 0 00.983 1.507c.425.432.94.768 1.505.98.541.21 1.159.355 2.062.395.907.04 1.196.05 3.504.05s2.597-.01 3.503-.05c.904-.04 1.525-.186 2.063-.395a4.348 4.348 0 002.487-2.487c.21-.542.355-1.16.395-2.063.04-.906.05-1.195.05-3.503s-.003-2.597-.043-3.504zm-1.531 6.94c-.037.831-.176 1.28-.292 1.578a2.82 2.82 0 01-1.614 1.614c-.3.117-.75.256-1.578.292-.896.04-1.165.05-3.434.05-2.268 0-2.54-.01-3.434-.05-.83-.036-1.278-.175-1.577-.292a2.617 2.617 0 01-.976-.634 2.644 2.644 0 01-.635-.976c-.116-.3-.255-.75-.292-1.578-.04-.896-.05-1.165-.05-3.434 0-2.268.01-2.54.05-3.434.037-.83.176-1.278.292-1.577a2.57 2.57 0 01.638-.976 2.63 2.63 0 01.976-.635c.3-.116.75-.255 1.578-.292.896-.04 1.165-.05 3.434-.05 2.271 0 2.54.01 3.434.05.83.037 1.278.176 1.577.292.368.136.704.352.976.635.283.275.498.607.635.976.116.299.255.75.292 1.577.04.897.05 1.166.05 3.434 0 2.269-.01 2.534-.05 3.43z"/><path d="M8.532 4.135a4.368 4.368 0 000 8.734 4.368 4.368 0 000-8.734zm0 7.2a2.833 2.833 0 110-5.667 2.833 2.833 0 010 5.667zm5.558-7.373a1.02 1.02 0 11-2.038 0 1.02 1.02 0 012.039 0z"/></g><defs><clipPath id="clip0_942:23949"><path fill="#fff" d="M0 0h17v17H0z"/></clipPath></defs></svg>