<svg width="28" height="29" fill="none" xmlns="http://www.w3.org/2000/svg"><path d="M19.834 4.464h4.667a1.167 1.167 0 011.166 1.167v18.666a1.167 1.167 0 01-1.166 1.167h-21a1.167 1.167 0 01-1.167-1.166V5.63a1.167 1.167 0 011.167-1.167h4.666V2.131h2.334v2.333h7V2.131h2.333v2.333zm3.5 9.333H4.667v9.334h18.667v-9.334zm-5.833-7h-7v2.334H8.167V6.798h-3.5v4.666h18.667V6.798h-3.5V9.13h-2.333V6.798zM7 16.132h2.333v2.333H7.001v-2.333zm5.833 0h2.333v2.333h-2.333v-2.333zm5.833 0H21v2.333h-2.334v-2.333z" fill="#4AD395"/></svg>