<svg width="23" height="22" fill="none" xmlns="http://www.w3.org/2000/svg"><g clip-path="url(#clip0_1098:28709)"><path d="M21.883 5.719a2.778 2.778 0 00-1.969-1.94c-1.748-.47-8.742-.47-8.742-.47s-6.994 0-8.743.453A2.834 2.834 0 00.46 5.719C0 7.44 0 11.01 0 11.01s0 3.588.46 5.292a2.779 2.779 0 001.97 1.939c1.766.471 8.742.471 8.742.471s6.994 0 8.742-.453a2.778 2.778 0 001.97-1.939c.46-1.722.46-5.292.46-5.292s.018-3.588-.46-5.31z" fill="red"/><path d="M8.945 14.309l5.816-3.298-5.816-3.299v6.597z" fill="#fff"/></g><defs><clipPath id="clip0_1098:28709"><path fill="#fff" d="M0 0h22.344v22H0z"/></clipPath></defs></svg>