<svg width="20" height="22" fill="none" xmlns="http://www.w3.org/2000/svg"><path d="M6.826 11.404c-1.745 0-3.154 1.41-3.128 3.136a3.098 3.098 0 001.525 2.609 3.036 3.036 0 01-.494-1.62c-.026-1.728 1.383-3.137 3.128-3.137.344 0 .675.056.984.155v-3.46a6.801 6.801 0 00-.984-.072H7.81v2.543a3.231 3.231 0 00-.984-.154zm7.541-10.373h-.92a5.283 5.283 0 001.998 3.184 5.322 5.322 0 01-1.078-3.184z" fill="#F00044"/><path d="M19.626 6.295c-.34 0-.666-.035-.989-.095v2.48a8.523 8.523 0 01-3.368-.684 8.801 8.801 0 01-1.917-1.117l.018 7.644a6.395 6.395 0 01-1.917 4.546 6.518 6.518 0 01-3.644 1.822 6.797 6.797 0 01-.984.073c-1.47 0-2.87-.477-4.009-1.358a6.548 6.548 0 005.045 2.346c.33 0 .662-.025.984-.072a6.519 6.519 0 003.644-1.822 6.395 6.395 0 001.916-4.546l-.064-7.645c.584.452 1.224.83 1.916 1.118a8.63 8.63 0 003.369.683" fill="#F00044"/><path d="M3.22 10.918a6.539 6.539 0 014.59-1.903v-.916a6.803 6.803 0 00-.985-.073A6.533 6.533 0 002.19 9.93a6.438 6.438 0 00-1.908 4.572 6.4 6.4 0 001.917 4.572c.197.193.4.373.614.537a6.4 6.4 0 01-1.504-4.121 6.478 6.478 0 011.912-4.572zM18.637 6.2v-.92h-.008a5.244 5.244 0 01-3.18-1.065A5.25 5.25 0 0018.637 6.2z" fill="#08FFF9"/><path d="M7.68 18.571c.409.022.8-.034 1.16-.15a3.097 3.097 0 002.145-2.935l.004-5.113V1.03h2.458a5.349 5.349 0 01-.103-.988H9.958V9.38l-.004 5.113a3.097 3.097 0 01-2.145 2.935 3.05 3.05 0 01-1.16.15 3.153 3.153 0 01-1.426-.433A3.135 3.135 0 007.68 18.57z" fill="#08FFF9"/><path d="M7.81 20.891a6.517 6.517 0 003.643-1.821 6.395 6.395 0 001.917-4.547l-.018-7.644a8.44 8.44 0 001.917 1.117 8.63 8.63 0 003.368.684V6.2a5.25 5.25 0 01-3.188-1.985 5.264 5.264 0 01-1.998-3.184H10.99v9.337l-.004 5.114a3.097 3.097 0 01-2.144 2.934 3.05 3.05 0 01-1.16.15 3.135 3.135 0 01-2.458-1.421 3.092 3.092 0 01-1.526-2.609C3.671 12.81 5.081 11.4 6.825 11.4c.344 0 .675.056.984.154V9.011a6.539 6.539 0 00-4.589 1.903 6.436 6.436 0 00-1.907 4.568c0 1.52.528 2.965 1.503 4.12a6.535 6.535 0 004.01 1.358c.33.005.661-.021.983-.069z" fill="#000"/></svg>