<svg width="22" height="22" fill="none" xmlns="http://www.w3.org/2000/svg"><g clip-path="url(#clip0_1098:28715)"><path d="M1.375 1.496C-.355 3.292 0 5.2 0 10.995c0 4.812-.84 9.637 3.555 10.773 1.372.352 13.53.352 14.9-.002 1.83-.472 3.32-1.956 3.523-4.544.028-.361.028-12.086-.001-12.455C21.76 2.011 20.064.422 17.828.1c-.512-.074-.615-.096-3.244-.1-9.325.004-11.37-.411-13.21 1.496z" fill="url(#paint0_linear_1098:28715)"/><path d="M10.997 2.877c-3.328 0-6.489-.296-7.696 2.803-.499 1.28-.426 2.94-.426 5.32 0 2.088-.067 4.05.426 5.32 1.205 3.1 4.39 2.803 7.694 2.803 3.188 0 6.474.332 7.696-2.803.5-1.292.426-2.93.426-5.32 0-3.174.175-5.222-1.364-6.76-1.558-1.559-3.666-1.364-6.76-1.364h.004zm-.727 1.464c6.942-.01 7.826-.782 7.338 9.94-.173 3.792-3.06 3.376-6.61 3.376-6.471 0-6.657-.185-6.657-6.66 0-6.55.513-6.652 5.929-6.657v.001zm5.063 1.349a.974.974 0 100 1.949.974.974 0 000-1.95zm-4.336 1.14A4.171 4.171 0 1011 15.171a4.171 4.171 0 00-.002-8.343zm0 1.463c3.58 0 3.585 5.416 0 5.416-3.578 0-3.584-5.416 0-5.416z" fill="#fff"/></g><defs><linearGradient id="paint0_linear_1098:28715" x1="1.417" y1="20.594" x2="21.864" y2="2.898" gradientUnits="userSpaceOnUse"><stop stop-color="#FD5"/><stop offset=".5" stop-color="#FF543E"/><stop offset="1" stop-color="#C837AB"/></linearGradient><clipPath id="clip0_1098:28715"><path fill="#fff" d="M0 0h22v22H0z"/></clipPath></defs></svg>