<svg width="100" height="100" fill="none" xmlns="http://www.w3.org/2000/svg"><path d="M72.102 34.135a3.906 3.906 0 010 5.524L45.897 65.865a3.907 3.907 0 01-5.524 0L27.898 53.39a3.905 3.905 0 010-5.524 3.905 3.905 0 015.523 0l9.713 9.713 23.444-23.444a3.907 3.907 0 015.524 0zM100 50c0 27.638-22.366 50-50 50-27.637 0-50-22.366-50-50C0 22.363 22.366 0 50 0c27.638 0 50 22.366 50 50zm-7.813 0c0-23.32-18.87-42.188-42.187-42.188C26.68 7.813 7.812 26.684 7.812 50c0 23.32 18.872 42.188 42.188 42.188 23.32 0 42.188-18.872 42.188-42.188z" fill="url(#paint0_linear_284:20458)"/><defs><linearGradient id="paint0_linear_284:20458" x1="0" y1="100" x2="100" y2="100" gradientUnits="userSpaceOnUse"><stop stop-color="#24B976"/><stop offset="1" stop-color="#4AD395"/></linearGradient></defs></svg>