<svg width="26" height="26" fill="none" xmlns="http://www.w3.org/2000/svg"><path fill-rule="evenodd" clip-rule="evenodd" d="M11.78.058C6.318.583 1.73 4.533.4 9.855-1.242 16.434 2.302 23.11 8.656 25.4c.487.176 1.65.485 2.147.571l.165.029v-9.14H7.665v-3.78h3.302v-1.833c0-2.029.032-2.362.309-3.154.543-1.56 1.681-2.54 3.348-2.882.479-.099.65-.107 1.652-.086.933.02 2.202.132 2.45.216.05.017.064.388.064 1.625v1.602l-1.08.03c-1.333.037-1.607.104-2.039.501-.548.504-.638.9-.64 2.844v1.136h1.803c1.585 0 1.804.01 1.804.078 0 .085-.49 3.33-.538 3.562l-.03.14h-3.04V26l.166-.029c.09-.015.485-.105.876-.199a12.761 12.761 0 006.115-3.454c5.083-5.11 5.084-13.37.002-18.48-2.735-2.75-6.585-4.148-10.41-3.78z" fill="#1877F2"/></svg>