<svg width="26" height="26" fill="none" xmlns="http://www.w3.org/2000/svg"><path d="M9.248 13.478c-2.062 0-3.727 1.665-3.697 3.707.02 1.31.742 2.447 1.803 3.082a3.588 3.588 0 01-.584-1.914c-.03-2.042 1.635-3.707 3.697-3.707.406 0 .797.066 1.163.182v-4.087a8.048 8.048 0 00-1.163-.087h-.056v3.007a3.818 3.818 0 00-1.163-.183zm8.911-12.259h-1.087a6.244 6.244 0 002.362 3.763 6.29 6.29 0 01-1.275-3.763z" fill="#F00044"/><path d="M24.375 7.44c-.4 0-.787-.04-1.168-.112v2.93a10.07 10.07 0 01-3.98-.807 10.401 10.401 0 01-2.266-1.32l.02 9.034a7.557 7.557 0 01-2.264 5.372 7.703 7.703 0 01-4.306 2.153 8.022 8.022 0 01-1.163.087 7.713 7.713 0 01-4.738-1.605 7.739 7.739 0 005.962 2.773c.39 0 .782-.03 1.162-.087a7.704 7.704 0 004.307-2.153 7.558 7.558 0 002.264-5.373l-.076-9.034a9.98 9.98 0 002.265 1.32 10.2 10.2 0 003.981.808" fill="#F00044"/><path d="M4.987 12.904a7.728 7.728 0 015.424-2.25V9.573a8.04 8.04 0 00-1.163-.087 7.72 7.72 0 00-5.48 2.25 7.61 7.61 0 00-2.254 5.403c0 2.041.807 3.956 2.265 5.403.233.229.472.442.726.635a7.564 7.564 0 01-1.778-4.87 7.656 7.656 0 012.26-5.403zm18.22-5.575V6.242h-.01a6.197 6.197 0 01-3.758-1.26 6.203 6.203 0 003.768 2.347z" fill="#08FFF9"/><path d="M10.258 21.948c.483.025.945-.041 1.371-.178 1.473-.482 2.534-1.854 2.534-3.468l.005-6.043V1.219h2.905A6.325 6.325 0 0116.951.05H12.95v11.034l-.005 6.043c0 1.615-1.062 2.986-2.534 3.469a3.603 3.603 0 01-1.372.178 3.726 3.726 0 01-1.685-.513 3.705 3.705 0 002.904 1.686z" fill="#08FFF9"/><path d="M10.41 24.69a7.703 7.703 0 004.307-2.153 7.558 7.558 0 002.265-5.373l-.02-9.034c.69.533 1.447.98 2.264 1.32a10.2 10.2 0 003.981.808v-2.93a6.203 6.203 0 01-3.768-2.346 6.222 6.222 0 01-2.36-3.763h-2.91v11.035l-.006 6.043c0 1.614-1.061 2.985-2.534 3.468a3.605 3.605 0 01-1.37.178 3.705 3.705 0 01-2.905-1.681 3.654 3.654 0 01-1.803-3.083c-.03-2.041 1.635-3.707 3.697-3.707.406 0 .797.066 1.163.183V10.65a7.728 7.728 0 00-5.424 2.25 7.606 7.606 0 00-2.255 5.398c0 1.797.625 3.503 1.778 4.87a7.724 7.724 0 004.738 1.604 7.37 7.37 0 001.163-.081z" fill="#000"/></svg>