<svg width="26" height="26" fill="none" xmlns="http://www.w3.org/2000/svg"><path d="M12.722 20.355h1.553s.47-.052.709-.31c.221-.237.213-.683.213-.683s-.031-2.084.938-2.392c.953-.302 2.179 2.015 3.477 2.908.982.674 1.728.526 1.728.526l3.473-.049s1.817-.112.955-1.54c-.07-.117-.502-1.056-2.582-2.987-2.178-2.022-1.885-1.694.738-5.19C25.52 8.51 26.16 7.21 25.96 6.655c-.19-.53-1.365-.39-1.365-.39l-3.907.023s-.29-.04-.505.09c-.21.126-.345.418-.345.418s-.619 1.648-1.445 3.05c-1.74 2.955-2.437 3.111-2.722 2.928-.661-.428-.495-1.72-.495-2.636 0-2.865.434-4.06-.847-4.369-.426-.102-.738-.17-1.825-.182-1.394-.014-2.576.005-3.244.332-.445.218-.788.704-.578.731.258.034.843.158 1.154.58.401.545.386 1.77.386 1.77s.231 3.372-.538 3.792c-.528.287-1.25-.3-2.803-2.983-.795-1.373-1.396-2.892-1.396-2.892s-.115-.283-.322-.434c-.25-.184-.6-.242-.6-.242l-3.716.022s-.557.017-.762.259c-.182.216-.015.661-.015.661s2.91 6.805 6.202 10.235c3.02 3.145 6.45 2.938 6.45 2.938z" fill="#1E88E5"/></svg>