<svg width="27" height="26" fill="none" xmlns="http://www.w3.org/2000/svg"><g clip-path="url(#clip0_285:20621)"><path d="M25.862 6.759a3.283 3.283 0 00-2.327-2.292c-2.067-.557-10.332-.557-10.332-.557s-8.266 0-10.332.536A3.35 3.35 0 00.544 6.759C0 8.793 0 13.012 0 13.012s0 4.24.544 6.254a3.284 3.284 0 002.327 2.292c2.088.556 10.332.556 10.332.556s8.265 0 10.332-.535a3.283 3.283 0 002.327-2.292c.544-2.034.544-6.253.544-6.253s.022-4.24-.544-6.275z" fill="red"/><path d="M10.57 16.91l6.874-3.897-6.874-3.898v7.796z" fill="#fff"/></g><defs><clipPath id="clip0_285:20621"><path fill="#fff" d="M0 0h26.406v26H0z"/></clipPath></defs></svg>