<svg width="32" height="32" fill="none" xmlns="http://www.w3.org/2000/svg"><path d="M4.452 22.666a13.357 13.357 0 01-1.304-3.1 4 4 0 00.003-7.13 13.32 13.32 0 013.335-5.783 4 4 0 006.174-3.565 13.32 13.32 0 016.676.002 4 4 0 006.176 3.563 13.321 13.321 0 012.034 2.68 13.3 13.3 0 011.304 3.101 4 4 0 00-.003 7.13 13.32 13.32 0 01-3.335 5.782 4 4 0 00-6.174 3.566 13.32 13.32 0 01-6.676-.003 4 4 0 00-6.176-3.563 13.354 13.354 0 01-2.034-2.68zm7.547.262a6.658 6.658 0 013 3.693c.665.063 1.333.064 1.999.001a6.658 6.658 0 013.001-3.693 6.657 6.657 0 014.7-.753c.387-.544.72-1.124.997-1.73A6.657 6.657 0 0124 16c0-1.68.627-3.25 1.697-4.446a10.834 10.834 0 00-1-1.73A6.657 6.657 0 0120 9.072a6.658 6.658 0 01-3-3.694 10.647 10.647 0 00-1.999 0 6.657 6.657 0 01-3 3.692 6.657 6.657 0 01-4.7.754c-.387.544-.72 1.124-.998 1.73A6.658 6.658 0 017.999 16c0 1.68-.627 3.25-1.697 4.445.28.607.614 1.186 1 1.73a6.657 6.657 0 014.697.753zM16 20a4 4 0 110-8 4 4 0 010 8zm0-2.667a1.333 1.333 0 100-2.667 1.333 1.333 0 000 2.667z" fill="#09121F"/></svg>