<svg width="32" height="32" fill="none" xmlns="http://www.w3.org/2000/svg"><path d="M2.666 29.334a10.667 10.667 0 1121.333 0h-2.666a8 8 0 00-16 0H2.666zm10.667-12c-4.42 0-8-3.58-8-8s3.58-8 8-8 8 3.58 8 8-3.58 8-8 8zm0-2.667a5.332 5.332 0 005.333-5.333A5.332 5.332 0 0013.333 4a5.332 5.332 0 00-5.334 5.334 5.332 5.332 0 005.334 5.333zm11.045 4.937a10.67 10.67 0 016.288 9.73h-2.667a8 8 0 00-4.716-7.298l1.094-2.432h.001zm-.917-15.053a7.334 7.334 0 014.538 6.783 7.332 7.332 0 01-6.666 7.303v-2.684a4.667 4.667 0 001.388-8.812l.74-2.59z" fill="#09121F"/></svg>