<svg width="90" height="90" fill="none" xmlns="http://www.w3.org/2000/svg"><g clip-path="url(#clip0_359_35822)" fill="#A0A2AF"><path d="M23.438 73.124c-6.004 0-11.344-3.844-13.283-9.567l-.131-.43c-.458-1.516-.649-2.79-.649-4.066V33.494L.278 63.86c-1.17 4.466 1.496 9.098 5.97 10.331l57.986 15.53a8.6 8.6 0 002.16.277c3.735 0 7.147-2.48 8.103-6.132l3.38-10.743h-54.44zM33.75 33.749c4.136 0 7.5-3.364 7.5-7.5 0-4.137-3.364-7.5-7.5-7.5s-7.5 3.363-7.5 7.5c0 4.136 3.364 7.5 7.5 7.5z"/><path d="M80.625 7.499h-56.25c-5.168 0-9.375 4.207-9.375 9.375v41.25c0 5.167 4.207 9.375 9.375 9.375h56.25c5.168 0 9.375-4.208 9.375-9.375v-41.25c0-5.168-4.207-9.375-9.375-9.375zm-56.25 7.5h56.25c1.035 0 1.875.84 1.875 1.875v26.62L70.654 29.673c-1.257-1.473-3.075-2.26-5.029-2.306a6.557 6.557 0 00-5.01 2.366L46.687 46.45l-4.537-4.526c-2.565-2.565-6.739-2.565-9.3 0L22.5 52.27V16.874c0-1.035.84-1.875 1.875-1.875z"/></g><defs><clipPath id="clip0_359_35822"><path fill="#fff" d="M0 0h90v90H0z"/></clipPath></defs></svg>