<svg width="23" height="24" fill="none" xmlns="http://www.w3.org/2000/svg"><path d="M14.183 7.757l-5.41 5.657a1.039 1.039 0 00-.012 1.426.92.92 0 001.054.212.958.958 0 00.31-.224l5.411-5.656a3.07 3.07 0 00.84-2.122 3.07 3.07 0 00-.84-2.121 2.808 2.808 0 00-2.03-.879c-.76 0-1.49.316-2.028.879l-5.411 5.657a5.013 5.013 0 00-1.063 1.623 5.195 5.195 0 00-.023 3.856 5.01 5.01 0 001.043 1.636c.448.468.98.839 1.566 1.09a4.603 4.603 0 003.688-.024 4.782 4.782 0 001.552-1.111L18.241 12l1.353 1.414-5.411 5.657a6.685 6.685 0 01-2.173 1.517 6.444 6.444 0 01-2.562.533c-.88 0-1.75-.18-2.563-.533a6.685 6.685 0 01-2.172-1.517A7.03 7.03 0 013.262 16.8a7.277 7.277 0 010-5.358c.336-.85.83-1.621 1.451-2.271l5.412-5.656a4.674 4.674 0 013.364-1.403 4.681 4.681 0 013.34 1.464 5.116 5.116 0 011.401 3.492 5.124 5.124 0 01-1.342 3.517l-5.41 5.659c-.267.279-.583.5-.931.65a2.763 2.763 0 01-2.197 0 2.866 2.866 0 01-.931-.65 3.013 3.013 0 01-.622-.974 3.119 3.119 0 010-2.297A3.01 3.01 0 017.419 12l5.411-5.657 1.353 1.414z" fill="#5B6571"/></svg>