<svg width="162" height="26" fill="none" xmlns="http://www.w3.org/2000/svg"><path d="M11.047 9.425l.233 2.362h.33l.233-2.362 3.68-9.118h7.114V20h-4.45V6.926l.509-2.513h-.467l-.687 2.513-3.598 8.35H8.945l-3.598-8.35-.686-2.513h-.467l.494 2.513V20H.252V.307h7.114l3.68 9.118zm31.256 3.544l-.082 1.07H30.548c0 .843.334 1.566 1.002 2.17.65.614 1.589.92 2.816.92.695 0 1.318-.118 1.867-.356.522-.238.866-.476 1.03-.714l.261-.33h4.436c-.018.128-.06.288-.123.48-.074.23-.275.591-.605 1.086a5.908 5.908 0 01-1.25 1.4c-.53.412-1.277.774-2.238 1.085-1.007.33-2.133.495-3.378.495-2.4 0-4.345-.646-5.837-1.937-1.492-1.29-2.238-3.08-2.238-5.37 0-2.288.741-4.078 2.224-5.37 1.483-1.29 3.415-1.936 5.796-1.936 2.362 0 4.285.646 5.768 1.937 1.483 1.29 2.224 3.08 2.224 5.37zm-5.26-3.296c-.65-.577-1.56-.866-2.732-.866-1.172 0-2.079.293-2.72.88-.659.594-.988 1.222-.988 1.88h7.388c0-.677-.316-1.308-.947-1.894zm14.874 10.602c-1.923 0-3.539-.655-4.848-1.964-1.31-1.31-1.964-3.09-1.964-5.342 0-2.253.655-4.033 1.964-5.343 1.31-1.309 2.925-1.964 4.848-1.964 1.043 0 1.986.165 2.829.495.851.348 1.428.687 1.73 1.016l.453.48h.165V.308h4.051V20h-4.05v-2.307h-.193c-.083.183-.316.48-.7.892a5.39 5.39 0 01-.948.797c-.385.247-.88.458-1.483.632a6.572 6.572 0 01-1.854.26zm-1.58-9.984c-.705.705-1.057 1.597-1.057 2.678 0 1.09.352 1.977 1.057 2.664.696.696 1.644 1.044 2.843 1.044 1.209 0 2.16-.348 2.857-1.044.705-.687 1.057-1.575 1.057-2.664 0-1.108-.357-2.005-1.071-2.692-.723-.678-1.67-1.016-2.843-1.016-1.19 0-2.138.343-2.843 1.03zm14.75-4.354h4.051V20h-4.051V5.937zm.384-2.705c-.402-.33-.604-.779-.604-1.346 0-.55.202-.998.604-1.346.394-.339.943-.508 1.648-.508s1.255.17 1.648.508c.403.348.605.797.605 1.346 0 .568-.202 1.016-.605 1.346-.393.338-.943.508-1.648.508s-1.254-.17-1.648-.508zm7.046 12.8c0-1.447.595-2.532 1.785-3.256 1.19-.714 2.696-1.07 4.518-1.07.943 0 1.79.095 2.54.287.752.211 1.273.403 1.566.577l.453.316v-2.06a1.97 1.97 0 00-.686-1.524c-.458-.403-1.222-.604-2.294-.604-.769 0-1.455.141-2.06.425-.631.293-.947.742-.947 1.346H73.23c.009-1.602.659-2.806 1.95-3.612 1.282-.796 3.021-1.195 5.218-1.195 2.225 0 3.951.43 5.178 1.291 1.236.861 1.854 2.152 1.854 3.873v4.395c0 .568.069.961.206 1.18.137.22.375.33.714.33l.59-.11V20c-.347.183-.929.275-1.744.275-1.053 0-1.849-.23-2.39-.687-.484-.394-.791-.755-.92-1.085l-.082-.192H83.6c0 .036-.046.119-.137.247-.092.119-.27.284-.536.494a4.24 4.24 0 01-.92.564c-.934.439-2.156.659-3.667.659-1.666 0-3.053-.362-4.16-1.085-1.109-.714-1.662-1.767-1.662-3.159zM80 17.211c.723 0 1.373-.091 1.95-.274.55-.174.93-.353 1.14-.536l.288-.261v-.838a2.101 2.101 0 00-.288-.233c-.155-.1-.517-.225-1.085-.371A8.032 8.032 0 0080 14.465c-2.216 0-3.323.457-3.323 1.373 0 .915 1.108 1.373 3.323 1.373zm16.48-1.099h11.399V20H92.045V.307h4.436v15.806zm20.394 4.162c-2.381 0-4.312-.646-5.796-1.937-1.483-1.29-2.224-3.08-2.224-5.37 0-2.288.741-4.078 2.224-5.37 1.484-1.29 3.415-1.936 5.796-1.936 2.38 0 4.312.646 5.795 1.937 1.484 1.29 2.225 3.08 2.225 5.37 0 2.289-.741 4.078-2.225 5.37-1.483 1.29-3.415 1.936-5.795 1.936zm0-3.475c1.199 0 2.142-.357 2.829-1.071.687-.714 1.03-1.634 1.03-2.76 0-1.127-.343-2.047-1.03-2.76-.687-.715-1.63-1.072-2.829-1.072-1.209 0-2.147.357-2.815 1.071-.687.714-1.03 1.634-1.03 2.76 0 1.127.343 2.047 1.03 2.761.668.714 1.606 1.071 2.815 1.071zm11.385-6.44c0-1.466.609-2.615 1.826-3.448 1.2-.833 2.825-1.25 4.876-1.25h8.72v2.802h-2.595c.393.357.59 1.035.59 2.033 0 1.464-.604 2.59-1.813 3.378-1.217.787-2.852 1.181-4.902 1.181-2.024 0-3.035.334-3.035 1.003 0 .677 1.011 1.016 3.035 1.016 2.664 0 4.66.37 5.987 1.112 1.337.742 2.001 1.854 1.992 3.337 0 2.921-2.66 4.381-7.979 4.381-5.311 0-7.966-1.46-7.966-4.38 0-.504.092-.98.275-1.429.183-.448.417-.81.7-1.085.513-.494 1.012-.837 1.497-1.03l.289-.123v-.11c-.275-.12-.531-.367-.769-.742a1.597 1.597 0 01-.303-.947c0-.43.138-.81.412-1.14.257-.33.532-.55.824-.66l.426-.192v-.082c-.137-.055-.375-.224-.714-.508a3.557 3.557 0 01-.632-.66c-.201-.256-.375-.608-.522-1.057a4.584 4.584 0 01-.219-1.4zm10.492 11.164c0-.998-1.263-1.497-3.79-1.497-2.536 0-3.805.5-3.805 1.497 0 .99 1.269 1.484 3.805 1.484 2.527 0 3.79-.495 3.79-1.484zm-1.263-11.151c0-1.273-.843-1.909-2.527-1.909-1.694 0-2.541.636-2.541 1.909 0 1.282.847 1.923 2.541 1.923 1.684 0 2.527-.641 2.527-1.923zm15.889 9.902c-2.381 0-4.312-.646-5.796-1.937-1.483-1.29-2.224-3.08-2.224-5.37 0-2.288.741-4.078 2.224-5.37 1.484-1.29 3.415-1.936 5.796-1.936 2.38 0 4.312.646 5.795 1.937 1.483 1.29 2.225 3.08 2.225 5.37 0 2.289-.742 4.078-2.225 5.37-1.483 1.29-3.415 1.936-5.795 1.936zm0-3.475c1.199 0 2.142-.357 2.829-1.071.687-.714 1.03-1.634 1.03-2.76 0-1.127-.343-2.047-1.03-2.76-.687-.715-1.63-1.072-2.829-1.072-1.209 0-2.147.357-2.815 1.071-.687.714-1.03 1.634-1.03 2.76 0 1.127.343 2.047 1.03 2.761.668.714 1.606 1.071 2.815 1.071z" fill="#fff"/></svg>