<svg width="63" height="20" fill="none" xmlns="http://www.w3.org/2000/svg"><path d="M8.277 7.48l.166 1.68h.235l.166-1.68L11.46.996h5.059V15h-3.165V5.703l.362-1.787h-.332l-.489 1.787-2.558 5.938H6.783L4.225 5.703l-.489-1.787h-.332l.352 1.787V15H.602V.996H5.66L8.277 7.48zM19.517.996h2.881V15h-2.88V.996zm10.987 14.2c-1.693 0-3.067-.46-4.121-1.378C25.328 12.9 24.8 11.628 24.8 10c0-1.628.527-2.9 1.582-3.818 1.055-.918 2.428-1.377 4.12-1.377 1.694 0 3.067.459 4.122 1.377 1.055.918 1.582 2.19 1.582 3.818 0 1.628-.527 2.9-1.582 3.818-1.055.918-2.428 1.377-4.121 1.377zm0-2.471c.853 0 1.523-.254 2.012-.762.488-.508.732-1.162.732-1.963 0-.8-.244-1.455-.732-1.963-.489-.508-1.16-.762-2.012-.762-.86 0-1.527.254-2.002.762-.488.508-.732 1.162-.732 1.963 0 .8.244 1.455.732 1.963.475.508 1.143.762 2.002.762zm8.096-4.58c0-1.042.433-1.86 1.298-2.452.853-.592 2.009-.888 3.467-.888h6.201v1.992h-1.845c.28.254.42.736.42 1.445 0 1.042-.43 1.843-1.29 2.402-.865.56-2.027.84-3.486.84-1.439 0-2.158.238-2.158.713 0 .482.72.723 2.158.723 1.895 0 3.314.264 4.258.79.95.528 1.423 1.32 1.416 2.374 0 2.077-1.891 3.115-5.674 3.115-3.776 0-5.664-1.038-5.664-3.115 0-.358.065-.697.196-1.016.13-.319.296-.576.498-.771.364-.352.719-.596 1.064-.732l.205-.088v-.079c-.195-.084-.378-.26-.547-.527a1.138 1.138 0 01-.215-.674c0-.306.098-.576.293-.81.183-.235.378-.39.586-.469l.303-.137v-.058c-.098-.04-.267-.16-.508-.362a2.511 2.511 0 01-.449-.468c-.143-.183-.267-.433-.371-.752a3.248 3.248 0 01-.156-.996zm7.46 7.939c0-.71-.898-1.064-2.695-1.064-1.803 0-2.705.354-2.705 1.064 0 .703.902 1.055 2.705 1.055 1.797 0 2.695-.352 2.695-1.055zm-.898-7.93c0-.905-.599-1.357-1.797-1.357-1.204 0-1.806.452-1.806 1.357 0 .912.602 1.367 1.806 1.367 1.198 0 1.797-.455 1.797-1.367zm11.299 7.041c-1.693 0-3.066-.459-4.121-1.377-1.055-.918-1.582-2.19-1.582-3.818 0-1.628.527-2.9 1.582-3.818 1.054-.918 2.428-1.377 4.12-1.377 1.694 0 3.067.459 4.122 1.377 1.055.918 1.582 2.19 1.582 3.818 0 1.628-.527 2.9-1.582 3.818-1.055.918-2.428 1.377-4.121 1.377zm0-2.47c.853 0 1.523-.254 2.012-.762.488-.508.732-1.162.732-1.963 0-.8-.244-1.455-.732-1.963-.489-.508-1.16-.762-2.012-.762-.86 0-1.527.254-2.002.762-.488.508-.732 1.162-.732 1.963 0 .8.244 1.455.732 1.963.475.508 1.143.762 2.002.762z" fill="#000"/></svg>