<svg width="75" height="75" fill="none" xmlns="http://www.w3.org/2000/svg"><g clip-path="url(#clip0)"><path d="M36.916.005C57.66-.312 74.59 16.015 74.993 36.757a37.675 37.675 0 01-.873 8.853c-1.062 4.814-1.693 9.714-1.693 14.644v9.53a2.644 2.644 0 01-2.644 2.643h-9.53c-4.929 0-9.828.631-14.643 1.693a37.664 37.664 0 01-8.852.873C16.015 74.59-.312 57.66.005 36.917.313 16.67 16.669.314 36.915.005z" fill="url(#paint0_linear)"/><path d="M74.191 45.272a20.24 20.24 0 01-.072.337c-1.062 4.814-1.693 9.714-1.693 14.644v9.53a2.643 2.643 0 01-2.643 2.643h-9.53c-.713 0-1.423.013-2.134.04L33.776 48.121c-.417-.422-.625-1.181-.625-2.28 0-4.816 1.229-8.282 3.69-10.393.247-.229.747-.631 1.495-1.206-.206-.177-11.783-11.8-11.917-11.918-.55-.47-.821-1.116-.821-1.934 0-1.466 1.03-2.901 3.097-4.306 2.065-1.405 4.686-2.108 7.86-2.108 3.982 0 7.12 1.024 9.41 3.066l28.226 28.23z" fill="url(#paint1_linear)"/><path d="M56.16 72.569a69.726 69.726 0 00-9.057 1.237L33.276 59.98c-.716-.696-1.075-1.506-1.075-2.434 0-.967.36-1.788 1.075-2.464.716-.676 1.6-1.015 2.654-1.015 1.08 0 2.015.34 2.804 1.015L56.16 72.568z" fill="url(#paint2_linear)"/><path d="M25.598 20.39c0-1.465 1.032-2.9 3.098-4.306 2.065-1.404 4.685-2.107 7.86-2.107 3.982 0 7.119 1.023 9.41 3.067 2.29 2.046 3.437 4.648 3.437 7.81 0 1.307-.191 2.56-.572 3.762a11.446 11.446 0 01-1.65 3.288 35.534 35.534 0 01-1.937 2.466c-.571.655-1.291 1.371-2.159 2.15-.867.78-1.385 1.255-1.551 1.423-1.253 1.138-2.024 2.298-2.317 3.478-.292 1.18-.438 2.972-.438 5.375 0 1.307-.973 1.96-2.918 1.96-.973 0-1.667-.21-2.084-.633-.417-.423-.626-1.183-.626-2.281 0-4.816 1.23-8.281 3.69-10.394.273-.252.854-.717 1.743-1.393.889-.675 1.55-1.236 1.986-1.68.435-.443.943-1.035 1.524-1.774a7.455 7.455 0 001.275-2.408c.27-.865.405-1.784.405-2.757 0-2.027-.657-3.6-1.97-4.72-1.313-1.12-3.132-1.68-5.457-1.68-1.35 0-2.498.205-3.446.614-.949.409-1.612.87-1.992 1.386a8.79 8.79 0 01-1.265 1.387c-.464.41-.948.613-1.454.613-.632 0-1.223-.237-1.77-.71-.549-.472-.822-1.117-.822-1.935zm6.605 37.156c0-.966.357-1.788 1.074-2.463.715-.676 1.6-1.015 2.654-1.015 1.08 0 2.015.339 2.804 1.015.788.675 1.182 1.497 1.182 2.463 0 .928-.394 1.739-1.182 2.434-.789.696-1.723 1.044-2.804 1.044-1.054 0-1.94-.348-2.654-1.044-.717-.695-1.074-1.506-1.074-2.434z" fill="#fff"/></g><defs><linearGradient id="paint0_linear" x1="23.408" y1="23.41" x2="74.62" y2="74.622" gradientUnits="userSpaceOnUse"><stop stop-color="#62E1FB"/><stop offset="1" stop-color="#00A2F3"/></linearGradient><linearGradient id="paint1_linear" x1="59.152" y1="51.866" x2="16.295" y2="9.008" gradientUnits="userSpaceOnUse"><stop stop-color="#00A2F3" stop-opacity="0"/><stop offset="1" stop-color="#0075CD"/></linearGradient><linearGradient id="paint2_linear" x1="44.94" y1="66.468" x2="33.538" y2="55.065" gradientUnits="userSpaceOnUse"><stop stop-color="#00A2F3" stop-opacity="0"/><stop offset="1" stop-color="#0075CD"/></linearGradient><clipPath id="clip0"><path fill="#fff" d="M0 0h75v75H0z"/></clipPath></defs></svg>