<svg width="22" height="22" fill="none" xmlns="http://www.w3.org/2000/svg"><path d="M3.063 15.584a9.182 9.182 0 01-.897-2.133 2.75 2.75 0 00.002-4.9A9.158 9.158 0 014.46 4.573a2.75 2.75 0 004.246-2.45 9.157 9.157 0 014.59.001 2.749 2.749 0 004.245 2.45 9.16 9.16 0 011.398 1.842c.397.687.694 1.402.897 2.132a2.75 2.75 0 00-.002 4.902 9.158 9.158 0 01-2.293 3.975 2.75 2.75 0 00-4.245 2.451 9.158 9.158 0 01-4.59-.002 2.75 2.75 0 00-4.246-2.449 9.184 9.184 0 01-1.397-1.842zm5.188.18a4.577 4.577 0 012.062 2.538 7.25 7.25 0 001.374.001 4.578 4.578 0 012.064-2.539 4.577 4.577 0 013.231-.518 7.25 7.25 0 00.686-1.19A4.577 4.577 0 0116.5 11a4.57 4.57 0 011.167-3.056 7.45 7.45 0 00-.688-1.19 4.577 4.577 0 01-3.23-.517 4.577 4.577 0 01-2.062-2.539 7.32 7.32 0 00-1.374 0A4.577 4.577 0 018.25 6.236a4.577 4.577 0 01-3.231.518 7.324 7.324 0 00-.686 1.19A4.577 4.577 0 015.5 11a4.574 4.574 0 01-1.167 3.056c.192.417.422.816.687 1.19a4.577 4.577 0 013.23.517zM11 13.75a2.75 2.75 0 110-5.5 2.75 2.75 0 010 5.5zm0-1.833a.917.917 0 100-1.833.917.917 0 000 1.833z" fill="#4AD395"/></svg>