<svg xmlns="http://www.w3.org/2000/svg" viewBox="0 0 14 14"><defs><linearGradient id="a" y1="-32.91" x2="14" y2="-32.91" gradientTransform="matrix(1 0 0 -1 0 -25.91)" gradientUnits="userSpaceOnUse"><stop offset="0" stop-color="#24b976"/><stop offset="1" stop-color="#4ad395"/></linearGradient></defs><g data-name="Слой 2"><path d="M7 0a7 7 0 107 7 7 7 0 00-7-7zm.46 11.15c-.34.06-1 .2-1.33.23a.81.81 0 01-.72-.38.88.88 0 01-.11-.8l1.33-3.64H5.25A1.65 1.65 0 016.54 5a5.28 5.28 0 011.34-.22 1.05 1.05 0 01.71.38.88.88 0 01.11.84L7.37 9.63h1.38a1.55 1.55 0 01-1.29 1.52zm.42-6.77a.88.88 0 110-1.75.88.88 0 010 1.75z" fill="url(#a)" data-name="Слой 1"/></g></svg>