<svg width="20" height="20" fill="none" xmlns="http://www.w3.org/2000/svg"><path d="M2.784 14.168a8.35 8.35 0 01-.815-1.939 2.5 2.5 0 00.001-4.456A8.325 8.325 0 014.055 4.16a2.5 2.5 0 003.859-2.228 8.325 8.325 0 014.172.002 2.5 2.5 0 003.86 2.226 8.372 8.372 0 012.086 3.614 2.5 2.5 0 00-.002 4.455 8.324 8.324 0 01-2.084 3.614 2.5 2.5 0 00-3.859 2.229 8.325 8.325 0 01-4.172-.002 2.5 2.5 0 00-3.86-2.226 8.349 8.349 0 01-1.271-1.675zm4.716.163a4.16 4.16 0 011.875 2.308c.416.04.834.04 1.25.001a4.16 4.16 0 011.875-2.308 4.161 4.161 0 012.938-.471c.242-.34.45-.703.623-1.082a4.16 4.16 0 01-1.06-2.778c0-1.05.391-2.031 1.06-2.778a6.776 6.776 0 00-.625-1.082 4.161 4.161 0 01-2.936-.47 4.16 4.16 0 01-1.875-2.309 6.655 6.655 0 00-1.249 0A4.16 4.16 0 017.5 5.67a4.16 4.16 0 01-2.937.47c-.241.341-.45.703-.623 1.083A4.16 4.16 0 015 10c0 1.05-.391 2.03-1.06 2.778.174.38.383.741.625 1.082a4.161 4.161 0 012.935.47zM10 12.5a2.5 2.5 0 110-5 2.5 2.5 0 010 5zm0-1.667a.833.833 0 100-1.667.833.833 0 000 1.667z" fill="#5B6571"/></svg>